<svg width="60" height="48" viewBox="0 0 60 48" fill="none" xmlns="http://www.w3.org/2000/svg">
<path d="M33 12C33 18.6281 27.6281 24 21 24C14.3719 24 9 18.6281 9 12C9 5.37188 14.3719 0 21 0C27.6281 0 33 5.37188 33 12ZM0 45.2156C0 35.9812 7.48125 28.5 16.7156 28.5H25.2844C34.5188 28.5 42 35.9812 42 45.2156C42 46.7531 40.7531 48 39.2156 48H2.78438C1.24688 48 0 46.7531 0 45.2156ZM57.1219 48H44.1938C44.7 47.1188 45 46.0969 45 45V44.25C45 38.5594 42.4594 33.45 38.4563 30.0188C38.6813 30.0094 38.8969 30 39.1219 30H44.8781C53.2313 30 60 36.7687 60 45.1219C60 46.7156 58.7063 48 57.1219 48ZM40.5 24C37.5938 24 34.9688 22.8188 33.0656 20.9156C34.9125 18.4219 36 15.3375 36 12C36 9.4875 35.3813 7.11562 34.2844 5.03438C36.0281 3.75937 38.175 3 40.5 3C46.3031 3 51 7.69687 51 13.5C51 19.3031 46.3031 24 40.5 24Z" fill="#713ACD"/>
</svg>
