<svg width="50" height="48" viewBox="0 0 50 48" fill="none" xmlns="http://www.w3.org/2000/svg">
<path d="M27.4428 1.68731C26.946 0.656177 25.8961 0 24.7431 0C23.5902 0 22.5496 0.656177 22.0434 1.68731L16.016 14.089L2.55501 16.0763C1.43013 16.2451 0.492737 17.0325 0.1459 18.1105C-0.200936 19.1885 0.0802825 20.379 0.886442 21.1758L10.6541 30.8403L8.34811 44.4981C8.16063 45.623 8.62933 46.7666 9.55735 47.4322C10.4854 48.0977 11.7134 48.1821 12.7257 47.6478L24.7525 41.2266L36.7793 47.6478C37.7917 48.1821 39.0197 48.1071 39.9477 47.4322C40.8757 46.7573 41.3444 45.623 41.1569 44.4981L38.8416 30.8403L48.6092 21.1758C49.4154 20.379 49.706 19.1885 49.3498 18.1105C48.9936 17.0325 48.0655 16.2451 46.9407 16.0763L33.4703 14.089L27.4428 1.68731Z" fill="#713ACD"/>
</svg>
