<svg width="25" height="24" viewBox="0 0 25 24" fill="none" xmlns="http://www.w3.org/2000/svg">
<path d="M7.5936 24C16.7057 24 21.6884 14.7649 21.6884 6.75798C21.6884 6.49577 21.6884 6.23413 21.6742 5.974C22.644 5.11627 23.4812 4.05367 24.1458 2.8364C23.2422 3.32723 22.2837 3.64848 21.3015 3.79147C22.3352 3.03315 23.109 1.84171 23.4782 0.438628C22.5056 1.1447 21.4415 1.64213 20.3317 1.91019C18.797 -0.0867273 16.3571 -0.576052 14.3808 0.718C12.4054 2.01205 11.3848 4.76616 11.8909 7.4367C7.90824 7.19279 4.19662 4.89085 1.68189 1.10565C0.364825 3.87296 1.03524 7.41613 3.21117 9.19631C2.42871 9.16386 1.66303 8.90297 0.979216 8.43591V8.51325C0.979216 11.3943 2.63658 13.8777 4.94437 14.4538C4.22267 14.6964 3.44742 14.7319 2.70657 14.5562C3.35492 17.0263 5.21488 18.7195 7.33479 18.7681C5.57952 20.4504 3.41245 21.3619 1.182 21.3562C0.786995 21.3562 0.391988 21.328 0 21.2721C2.26516 23.0515 4.9008 23.9962 7.59341 23.9926" fill="#713ACD"/>
</svg>
