<svg width="62" height="60" viewBox="0 0 62 60" fill="none" xmlns="http://www.w3.org/2000/svg">
<path fill-rule="evenodd" clip-rule="evenodd" d="M30.7595 0C13.7737 0 0 13.7707 0 30.7595C0 44.3504 8.81354 55.8799 21.0352 59.9476C22.572 60.2329 23.1364 59.2804 23.1364 58.4679C23.1364 57.7345 23.1078 55.3114 23.0946 52.7412C14.5373 54.6019 12.7316 49.1119 12.7316 49.1119C11.3323 45.5566 9.31628 44.6112 9.31628 44.6112C6.52496 42.7021 9.52665 42.7418 9.52665 42.7418C12.6149 42.9583 14.2418 45.9116 14.2418 45.9116C16.9853 50.613 21.4376 49.254 23.1929 48.4686C23.469 46.4806 24.2661 45.1231 25.1458 44.355C18.3137 43.5782 11.1311 40.9402 11.1311 29.154C11.1311 25.7958 12.3332 23.0518 14.3009 20.8972C13.981 20.123 12.9282 16.9944 14.5984 12.7575C14.5984 12.7575 17.1809 11.9308 23.0589 15.9105C25.5131 15.2285 28.1449 14.8857 30.7595 14.874C33.3726 14.8857 36.006 15.2275 38.4647 15.9095C44.3356 11.9298 46.915 12.7565 46.915 12.7565C48.5893 16.9929 47.5365 20.1219 47.2171 20.8962C49.1893 23.0508 50.3828 25.7947 50.3828 29.153C50.3828 40.9672 43.187 43.568 36.3376 44.33C37.4414 45.2846 38.4244 47.157 38.4244 50.0262C38.4244 54.1419 38.3888 57.4543 38.3888 58.4674C38.3888 59.286 38.943 60.2451 40.5016 59.9431C52.7162 55.8712 61.5195 44.3453 61.5195 30.7595C61.519 13.7717 47.7468 0.000509328 30.7595 0.000509328V0Z" fill="white"/>
</svg>
